# xmcd
#
# Track frame offsets: 
#        150
#        19127
#        42163
#        60568
#        78463
#        97558
#        117548
#        136752
#        153290
#        174909
#        183816
#        201591
#        216893
#
# Disc length: 3702 seconds
#
# Revision: 0
# Processed by: cddbd v1.5.2PL0 Copyright (c) Steve Scherf et al.
# Submitted via: ExactAudioCopy v0.99pb4
#
DISCID=a30e740d
DTITLE=Beggar Joe - Beggar Joe
DYEAR=2009
DGENRE=Blues
TTITLE0=Puppet King
TTITLE1=Sleeping City
TTITLE2=Evil Overcomes
TTITLE3=Rely On
TTITLE4=Zappa
TTITLE5=Mind Strays
TTITLE6=Time is Now
TTITLE7=Ain't No Way
TTITLE8=No More Revelations
TTITLE9=Walk Away (Part 1)
TTITLE10=Walk Away (Part 2)
TTITLE11=Misbehaviour
TTITLE12=Can You See
EXTD=
EXTT0=
EXTT1=
EXTT2=
EXTT3=
EXTT4=
EXTT5=
EXTT6=
EXTT7=
EXTT8=
EXTT9=
EXTT10=
EXTT11=
EXTT12=
PLAYORDER=
